<svg width="33" height="33" viewBox="0 0 33 33" fill="none" xmlns="http://www.w3.org/2000/svg">
<mask id="path-1-outside-1_10803_4" maskUnits="userSpaceOnUse" x="0.0638428" y="0.5" width="32" height="32" fill="black">
<rect fill="white" x="0.0638428" y="0.5" width="32" height="32"/>
<path d="M31.0638 9.28711C31.0638 4.99329 27.5798 1.5 23.2975 1.5C20.0757 1.5 17.2106 3.52039 16.0639 6.453C14.9171 3.52039 12.0518 1.5 8.83015 1.5C4.54788 1.5 1.06384 4.99329 1.06384 9.28711C1.06384 12.5134 3.00547 15.3292 5.91059 16.5C3.00547 17.6708 1.06384 20.4866 1.06384 23.7129C1.06384 28.0067 4.54788 31.5 8.83015 31.5C12.0518 31.5 14.9171 29.4796 16.0639 26.547C17.2106 29.4796 20.0757 31.5 23.2975 31.5C27.5798 31.5 31.0638 28.0067 31.0638 23.7129C31.0638 20.4866 29.1222 17.6708 26.2171 16.5C29.1222 15.3292 31.0638 12.5134 31.0638 9.28711ZM24.8904 16.1349C24.7211 16.1741 24.6011 16.3257 24.6011 16.5C24.6011 16.6743 24.7211 16.8259 24.8904 16.8651C28.0848 17.6096 30.3158 20.4254 30.3158 23.7129C30.3158 27.5933 27.1674 30.75 23.2975 30.75C19.9947 30.75 17.1063 28.4004 16.4299 25.1635C16.3937 24.9899 16.2409 24.8654 16.0639 24.8654C15.887 24.8654 15.7341 24.9899 15.698 25.1635C15.0214 28.4004 12.133 30.75 8.83015 30.75C4.96024 30.75 1.81186 27.5933 1.81186 23.7129C1.81186 20.4254 4.04293 17.6096 7.23733 16.8651C7.40662 16.8259 7.5266 16.6743 7.5266 16.5C7.5266 16.3257 7.40662 16.1741 7.23733 16.1349C4.04293 15.3904 1.81186 12.5746 1.81186 9.28711C1.81186 5.40674 4.96024 2.25 8.83015 2.25C12.133 2.25 15.0214 4.59961 15.698 7.83655C15.7341 8.01013 15.887 8.13464 16.0639 8.13464C16.2409 8.13464 16.3937 8.01013 16.4299 7.83655C17.1063 4.59961 19.9947 2.25 23.2975 2.25C27.1674 2.25 30.3158 5.40674 30.3158 9.28711C30.3158 12.5746 28.0848 15.3904 24.8904 16.1349Z"/>
</mask>
<path d="M31.0638 9.28711C31.0638 4.99329 27.5798 1.5 23.2975 1.5C20.0757 1.5 17.2106 3.52039 16.0639 6.453C14.9171 3.52039 12.0518 1.5 8.83015 1.5C4.54788 1.5 1.06384 4.99329 1.06384 9.28711C1.06384 12.5134 3.00547 15.3292 5.91059 16.5C3.00547 17.6708 1.06384 20.4866 1.06384 23.7129C1.06384 28.0067 4.54788 31.5 8.83015 31.5C12.0518 31.5 14.9171 29.4796 16.0639 26.547C17.2106 29.4796 20.0757 31.5 23.2975 31.5C27.5798 31.5 31.0638 28.0067 31.0638 23.7129C31.0638 20.4866 29.1222 17.6708 26.2171 16.5C29.1222 15.3292 31.0638 12.5134 31.0638 9.28711ZM24.8904 16.1349C24.7211 16.1741 24.6011 16.3257 24.6011 16.5C24.6011 16.6743 24.7211 16.8259 24.8904 16.8651C28.0848 17.6096 30.3158 20.4254 30.3158 23.7129C30.3158 27.5933 27.1674 30.75 23.2975 30.75C19.9947 30.75 17.1063 28.4004 16.4299 25.1635C16.3937 24.9899 16.2409 24.8654 16.0639 24.8654C15.887 24.8654 15.7341 24.9899 15.698 25.1635C15.0214 28.4004 12.133 30.75 8.83015 30.75C4.96024 30.75 1.81186 27.5933 1.81186 23.7129C1.81186 20.4254 4.04293 17.6096 7.23733 16.8651C7.40662 16.8259 7.5266 16.6743 7.5266 16.5C7.5266 16.3257 7.40662 16.1741 7.23733 16.1349C4.04293 15.3904 1.81186 12.5746 1.81186 9.28711C1.81186 5.40674 4.96024 2.25 8.83015 2.25C12.133 2.25 15.0214 4.59961 15.698 7.83655C15.7341 8.01013 15.887 8.13464 16.0639 8.13464C16.2409 8.13464 16.3937 8.01013 16.4299 7.83655C17.1063 4.59961 19.9947 2.25 23.2975 2.25C27.1674 2.25 30.3158 5.40674 30.3158 9.28711C30.3158 12.5746 28.0848 15.3904 24.8904 16.1349Z" fill="#3DB370"/>
<path d="M31.0638 9.28711C31.0638 4.99329 27.5798 1.5 23.2975 1.5C20.0757 1.5 17.2106 3.52039 16.0639 6.453C14.9171 3.52039 12.0518 1.5 8.83015 1.5C4.54788 1.5 1.06384 4.99329 1.06384 9.28711C1.06384 12.5134 3.00547 15.3292 5.91059 16.5C3.00547 17.6708 1.06384 20.4866 1.06384 23.7129C1.06384 28.0067 4.54788 31.5 8.83015 31.5C12.0518 31.5 14.9171 29.4796 16.0639 26.547C17.2106 29.4796 20.0757 31.5 23.2975 31.5C27.5798 31.5 31.0638 28.0067 31.0638 23.7129C31.0638 20.4866 29.1222 17.6708 26.2171 16.5C29.1222 15.3292 31.0638 12.5134 31.0638 9.28711ZM24.8904 16.1349C24.7211 16.1741 24.6011 16.3257 24.6011 16.5C24.6011 16.6743 24.7211 16.8259 24.8904 16.8651C28.0848 17.6096 30.3158 20.4254 30.3158 23.7129C30.3158 27.5933 27.1674 30.75 23.2975 30.75C19.9947 30.75 17.1063 28.4004 16.4299 25.1635C16.3937 24.9899 16.2409 24.8654 16.0639 24.8654C15.887 24.8654 15.7341 24.9899 15.698 25.1635C15.0214 28.4004 12.133 30.75 8.83015 30.75C4.96024 30.75 1.81186 27.5933 1.81186 23.7129C1.81186 20.4254 4.04293 17.6096 7.23733 16.8651C7.40662 16.8259 7.5266 16.6743 7.5266 16.5C7.5266 16.3257 7.40662 16.1741 7.23733 16.1349C4.04293 15.3904 1.81186 12.5746 1.81186 9.28711C1.81186 5.40674 4.96024 2.25 8.83015 2.25C12.133 2.25 15.0214 4.59961 15.698 7.83655C15.7341 8.01013 15.887 8.13464 16.0639 8.13464C16.2409 8.13464 16.3937 8.01013 16.4299 7.83655C17.1063 4.59961 19.9947 2.25 23.2975 2.25C27.1674 2.25 30.3158 5.40674 30.3158 9.28711C30.3158 12.5746 28.0848 15.3904 24.8904 16.1349Z" stroke="#3DB370" stroke-width="2" mask="url(#path-1-outside-1_10803_4)"/>
</svg>
